<mxfile host="app.diagrams.net" modified="2023-12-13T12:48:06.692Z" agent="Mozilla/5.0 (X11; Ubuntu; Linux x86_64; rv:120.0) Gecko/20100101 Firefox/120.0" etag="LSqKVA8uSu3MvE0TiwcL" version="22.1.8" type="github">
  <diagram id="C5RBs43oDa-KdzZeNtuy" name="Page-1">
    <mxGraphModel dx="2901" dy="1153" grid="1" gridSize="10" guides="1" tooltips="1" connect="1" arrows="1" fold="1" page="1" pageScale="1" pageWidth="827" pageHeight="1169" math="0" shadow="0">
      <root>
        <mxCell id="WIyWlLk6GJQsqaUBKTNV-0" />
        <mxCell id="WIyWlLk6GJQsqaUBKTNV-1" parent="WIyWlLk6GJQsqaUBKTNV-0" />
        <mxCell id="WIyWlLk6GJQsqaUBKTNV-2" value="" style="rounded=0;html=1;jettySize=auto;orthogonalLoop=1;fontSize=11;endArrow=block;endFill=0;endSize=8;strokeWidth=1;shadow=0;labelBackgroundColor=none;edgeStyle=orthogonalEdgeStyle;" parent="WIyWlLk6GJQsqaUBKTNV-1" source="WIyWlLk6GJQsqaUBKTNV-3" edge="1">
          <mxGeometry relative="1" as="geometry">
            <mxPoint x="220" y="170" as="targetPoint" />
          </mxGeometry>
        </mxCell>
        <mxCell id="WIyWlLk6GJQsqaUBKTNV-3" value="&lt;div&gt;&lt;b&gt;Masked Tile Dataset&lt;/b&gt;&lt;/div&gt;&lt;div&gt;(Binary Cancer Labels)&lt;/div&gt;&lt;div&gt;&quot;UBC Create Binary Tiles&quot;&lt;br&gt;&lt;/div&gt;" style="rounded=1;whiteSpace=wrap;html=1;fontSize=12;glass=0;strokeWidth=1;shadow=0;" parent="WIyWlLk6GJQsqaUBKTNV-1" vertex="1">
          <mxGeometry x="150" y="55" width="180" height="70" as="geometry" />
        </mxCell>
        <mxCell id="WIyWlLk6GJQsqaUBKTNV-5" value="No" style="edgeStyle=orthogonalEdgeStyle;rounded=0;html=1;jettySize=auto;orthogonalLoop=1;fontSize=11;endArrow=block;endFill=0;endSize=8;strokeWidth=1;shadow=0;labelBackgroundColor=none;" parent="WIyWlLk6GJQsqaUBKTNV-1" target="WIyWlLk6GJQsqaUBKTNV-7" edge="1">
          <mxGeometry y="10" relative="1" as="geometry">
            <mxPoint as="offset" />
            <mxPoint x="270" y="210" as="sourcePoint" />
          </mxGeometry>
        </mxCell>
        <mxCell id="vX3REchwmnbRb52gsE5m-12" style="edgeStyle=orthogonalEdgeStyle;rounded=0;orthogonalLoop=1;jettySize=auto;html=1;exitX=1;exitY=0.5;exitDx=0;exitDy=0;entryX=0;entryY=0.5;entryDx=0;entryDy=0;" edge="1" parent="WIyWlLk6GJQsqaUBKTNV-1" source="WIyWlLk6GJQsqaUBKTNV-7" target="vX3REchwmnbRb52gsE5m-7">
          <mxGeometry relative="1" as="geometry" />
        </mxCell>
        <mxCell id="WIyWlLk6GJQsqaUBKTNV-7" value="&lt;div&gt;&lt;b&gt;Infer Binary Labels&lt;/b&gt;&lt;/div&gt;&lt;div&gt;&quot;UBC Label Tiles Full Dataset&quot;&lt;br&gt;&lt;/div&gt;" style="rounded=1;whiteSpace=wrap;html=1;fontSize=12;glass=0;strokeWidth=1;shadow=0;" parent="WIyWlLk6GJQsqaUBKTNV-1" vertex="1">
          <mxGeometry x="400" y="170" width="180" height="70" as="geometry" />
        </mxCell>
        <mxCell id="WIyWlLk6GJQsqaUBKTNV-10" value="Step 1:&lt;br&gt;&lt;div&gt;Label Cancer Tiles&lt;/div&gt;" style="rhombus;whiteSpace=wrap;html=1;shadow=0;fontFamily=Helvetica;fontSize=12;align=center;strokeWidth=1;spacing=6;spacingTop=-4;" parent="WIyWlLk6GJQsqaUBKTNV-1" vertex="1">
          <mxGeometry x="-550" y="90" width="150" height="90" as="geometry" />
        </mxCell>
        <mxCell id="vX3REchwmnbRb52gsE5m-1" value="" style="shape=cylinder3;whiteSpace=wrap;html=1;boundedLbl=1;backgroundOutline=1;size=15;" vertex="1" parent="WIyWlLk6GJQsqaUBKTNV-1">
          <mxGeometry x="120" y="90" width="40" height="50" as="geometry" />
        </mxCell>
        <mxCell id="vX3REchwmnbRb52gsE5m-3" value="&lt;div&gt;&lt;b&gt;Binary Cancer Tissue Classifier&lt;/b&gt;&lt;br&gt;&lt;/div&gt;&lt;div&gt;&quot;UBC Binary Cancer Tissue Classifier - WSI 0.25x&quot;&lt;/div&gt;" style="rounded=0;whiteSpace=wrap;html=1;" vertex="1" parent="WIyWlLk6GJQsqaUBKTNV-1">
          <mxGeometry x="140" y="170" width="160" height="70" as="geometry" />
        </mxCell>
        <mxCell id="vX3REchwmnbRb52gsE5m-2" value="" style="sketch=0;outlineConnect=0;fontColor=#232F3E;gradientColor=none;fillColor=#01A88D;strokeColor=none;dashed=0;verticalLabelPosition=bottom;verticalAlign=top;align=center;html=1;fontSize=12;fontStyle=0;aspect=fixed;pointerEvents=1;shape=mxgraph.aws4.sagemaker_model;shadow=0;" vertex="1" parent="WIyWlLk6GJQsqaUBKTNV-1">
          <mxGeometry x="112" y="212" width="28" height="28" as="geometry" />
        </mxCell>
        <mxCell id="vX3REchwmnbRb52gsE5m-10" value="" style="edgeStyle=orthogonalEdgeStyle;rounded=0;orthogonalLoop=1;jettySize=auto;html=1;" edge="1" parent="WIyWlLk6GJQsqaUBKTNV-1" source="vX3REchwmnbRb52gsE5m-4" target="WIyWlLk6GJQsqaUBKTNV-7">
          <mxGeometry relative="1" as="geometry" />
        </mxCell>
        <mxCell id="vX3REchwmnbRb52gsE5m-4" value="&lt;div&gt;&lt;b&gt;Full Tile Dataset&amp;nbsp;&lt;/b&gt;&lt;/div&gt;&lt;div&gt;&lt;b&gt;unlabelled&lt;br&gt;&lt;/b&gt;&lt;/div&gt;" style="rounded=1;whiteSpace=wrap;html=1;fontSize=12;glass=0;strokeWidth=1;shadow=0;" vertex="1" parent="WIyWlLk6GJQsqaUBKTNV-1">
          <mxGeometry x="400" y="55" width="180" height="70" as="geometry" />
        </mxCell>
        <mxCell id="vX3REchwmnbRb52gsE5m-5" value="" style="shape=cylinder3;whiteSpace=wrap;html=1;boundedLbl=1;backgroundOutline=1;size=15;" vertex="1" parent="WIyWlLk6GJQsqaUBKTNV-1">
          <mxGeometry x="370" y="90" width="40" height="50" as="geometry" />
        </mxCell>
        <mxCell id="vX3REchwmnbRb52gsE5m-9" style="edgeStyle=orthogonalEdgeStyle;rounded=0;orthogonalLoop=1;jettySize=auto;html=1;entryX=0.5;entryY=0;entryDx=0;entryDy=0;" edge="1" parent="WIyWlLk6GJQsqaUBKTNV-1" source="vX3REchwmnbRb52gsE5m-7" target="WIyWlLk6GJQsqaUBKTNV-3">
          <mxGeometry relative="1" as="geometry">
            <mxPoint x="737" y="20" as="targetPoint" />
            <Array as="points">
              <mxPoint x="740" y="35" />
              <mxPoint x="240" y="35" />
            </Array>
          </mxGeometry>
        </mxCell>
        <mxCell id="vX3REchwmnbRb52gsE5m-7" value="&lt;div&gt;&lt;b&gt;Full Tile Dataset&lt;/b&gt;&lt;/div&gt;&lt;div&gt;&lt;b&gt;&amp;nbsp;Cancer labels&lt;br&gt;&lt;/b&gt;&lt;/div&gt;&lt;div&gt;(pseudo-labels)&lt;b&gt;&lt;br&gt;&lt;/b&gt;&lt;/div&gt;" style="rounded=1;whiteSpace=wrap;html=1;fontSize=12;glass=0;strokeWidth=1;shadow=0;" vertex="1" parent="WIyWlLk6GJQsqaUBKTNV-1">
          <mxGeometry x="647" y="170" width="180" height="70" as="geometry" />
        </mxCell>
        <mxCell id="vX3REchwmnbRb52gsE5m-8" value="" style="shape=cylinder3;whiteSpace=wrap;html=1;boundedLbl=1;backgroundOutline=1;size=15;" vertex="1" parent="WIyWlLk6GJQsqaUBKTNV-1">
          <mxGeometry x="617" y="212" width="40" height="50" as="geometry" />
        </mxCell>
        <mxCell id="vX3REchwmnbRb52gsE5m-13" value="Feedback Loop" style="text;html=1;align=center;verticalAlign=middle;resizable=0;points=[];autosize=1;strokeColor=none;fillColor=none;" vertex="1" parent="WIyWlLk6GJQsqaUBKTNV-1">
          <mxGeometry x="595" y="38" width="110" height="30" as="geometry" />
        </mxCell>
        <mxCell id="vX3REchwmnbRb52gsE5m-14" value="" style="shape=link;html=1;rounded=0;edgeStyle=orthogonalEdgeStyle;" edge="1" parent="WIyWlLk6GJQsqaUBKTNV-1">
          <mxGeometry width="100" relative="1" as="geometry">
            <mxPoint x="60" y="240" as="sourcePoint" />
            <mxPoint x="60" y="35" as="targetPoint" />
          </mxGeometry>
        </mxCell>
        <mxCell id="vX3REchwmnbRb52gsE5m-16" value="" style="sketch=0;pointerEvents=1;shadow=0;dashed=0;html=1;strokeColor=none;fillColor=#505050;labelPosition=center;verticalLabelPosition=bottom;verticalAlign=top;outlineConnect=0;align=center;shape=mxgraph.office.concepts.script;" vertex="1" parent="WIyWlLk6GJQsqaUBKTNV-1">
          <mxGeometry x="381" y="223.5" width="33" height="27" as="geometry" />
        </mxCell>
        <mxCell id="vX3REchwmnbRb52gsE5m-17" value="" style="sketch=0;pointerEvents=1;shadow=0;dashed=0;html=1;strokeColor=none;fillColor=#505050;labelPosition=center;verticalLabelPosition=bottom;verticalAlign=top;outlineConnect=0;align=center;shape=mxgraph.office.concepts.script;" vertex="1" parent="WIyWlLk6GJQsqaUBKTNV-1">
          <mxGeometry x="150" y="111.5" width="33" height="27" as="geometry" />
        </mxCell>
        <mxCell id="vX3REchwmnbRb52gsE5m-18" value="" style="sketch=0;pointerEvents=1;shadow=0;dashed=0;html=1;strokeColor=none;fillColor=#505050;labelPosition=center;verticalLabelPosition=bottom;verticalAlign=top;outlineConnect=0;align=center;shape=mxgraph.office.concepts.script;" vertex="1" parent="WIyWlLk6GJQsqaUBKTNV-1">
          <mxGeometry x="127" y="223.5" width="33" height="27" as="geometry" />
        </mxCell>
        <mxCell id="vX3REchwmnbRb52gsE5m-19" value="&lt;b&gt;&lt;u&gt;&lt;font style=&quot;font-size: 12px;&quot;&gt;DS 0&lt;/font&gt;&lt;/u&gt;&lt;/b&gt;" style="text;html=1;align=center;verticalAlign=middle;resizable=0;points=[];autosize=1;strokeColor=#82b366;fillColor=#d5e8d4;" vertex="1" parent="WIyWlLk6GJQsqaUBKTNV-1">
          <mxGeometry x="530" y="60" width="50" height="30" as="geometry" />
        </mxCell>
        <mxCell id="vX3REchwmnbRb52gsE5m-20" value="&lt;b&gt;&lt;u&gt;&lt;font style=&quot;font-size: 12px;&quot;&gt;DS 1&lt;br&gt;&lt;/font&gt;&lt;/u&gt;&lt;/b&gt;" style="text;html=1;align=center;verticalAlign=middle;resizable=0;points=[];autosize=1;strokeColor=#82b366;fillColor=#d5e8d4;" vertex="1" parent="WIyWlLk6GJQsqaUBKTNV-1">
          <mxGeometry x="300" y="55" width="50" height="30" as="geometry" />
        </mxCell>
        <mxCell id="vX3REchwmnbRb52gsE5m-21" value="&lt;div&gt;&lt;b&gt;&lt;u&gt;&lt;font style=&quot;font-size: 12px;&quot;&gt;DS 2&lt;/font&gt;&lt;/u&gt;&lt;/b&gt;&lt;/div&gt;" style="text;html=1;align=center;verticalAlign=middle;resizable=0;points=[];autosize=1;strokeColor=#82b366;fillColor=#d5e8d4;" vertex="1" parent="WIyWlLk6GJQsqaUBKTNV-1">
          <mxGeometry x="790" y="170" width="50" height="30" as="geometry" />
        </mxCell>
        <mxCell id="vX3REchwmnbRb52gsE5m-22" value="&lt;div&gt;Information:&lt;/div&gt;&lt;div&gt;Goal: Create a binary classifier which is able to label the full tiled dataset. &lt;br&gt;&lt;div align=&quot;left&quot;&gt;This dataset will be later used for the subtype classification, so that we know&amp;nbsp;&lt;/div&gt;&lt;div align=&quot;left&quot;&gt;which tiles to train the subtype-classifier on&lt;br&gt;&lt;/div&gt;&lt;/div&gt;&lt;div align=&quot;left&quot;&gt;- Cancer vs. non-cancer classification&lt;br&gt;&lt;/div&gt;&lt;div align=&quot;left&quot;&gt;- WSI images only&lt;/div&gt;&lt;div align=&quot;left&quot;&gt;- 0.25 scaling&lt;/div&gt;&lt;div align=&quot;left&quot;&gt;- semi-supervised&lt;br&gt;&lt;/div&gt;&lt;div align=&quot;left&quot;&gt;Output: &lt;br&gt;&lt;/div&gt;&lt;div align=&quot;left&quot;&gt;- Full tiles dataset with cancer labels --&amp;gt; used in next step: subtype classification&lt;br&gt;&lt;/div&gt;" style="text;html=1;align=center;verticalAlign=middle;resizable=0;points=[];autosize=1;strokeColor=none;fillColor=none;" vertex="1" parent="WIyWlLk6GJQsqaUBKTNV-1">
          <mxGeometry x="-390" y="45" width="450" height="160" as="geometry" />
        </mxCell>
        <mxCell id="vX3REchwmnbRb52gsE5m-23" value="" style="rounded=0;html=1;jettySize=auto;orthogonalLoop=1;fontSize=11;endArrow=block;endFill=0;endSize=8;strokeWidth=1;shadow=0;labelBackgroundColor=none;edgeStyle=orthogonalEdgeStyle;" edge="1" parent="WIyWlLk6GJQsqaUBKTNV-1" source="vX3REchwmnbRb52gsE5m-24">
          <mxGeometry relative="1" as="geometry">
            <mxPoint x="220" y="465" as="targetPoint" />
          </mxGeometry>
        </mxCell>
        <mxCell id="vX3REchwmnbRb52gsE5m-24" value="&lt;div&gt;&lt;b&gt;Full Tile Dataset&lt;/b&gt;&lt;/div&gt;&lt;div&gt;&lt;b&gt;Binary Cancer labels&lt;/b&gt;&lt;/div&gt;&lt;div&gt;(pseudo-labels)&lt;b&gt;&lt;br&gt;&lt;/b&gt;&lt;/div&gt;" style="rounded=1;whiteSpace=wrap;html=1;fontSize=12;glass=0;strokeWidth=1;shadow=0;" vertex="1" parent="WIyWlLk6GJQsqaUBKTNV-1">
          <mxGeometry x="150" y="350" width="180" height="70" as="geometry" />
        </mxCell>
        <mxCell id="vX3REchwmnbRb52gsE5m-25" value="No" style="edgeStyle=orthogonalEdgeStyle;rounded=0;html=1;jettySize=auto;orthogonalLoop=1;fontSize=11;endArrow=block;endFill=0;endSize=8;strokeWidth=1;shadow=0;labelBackgroundColor=none;" edge="1" parent="WIyWlLk6GJQsqaUBKTNV-1" target="vX3REchwmnbRb52gsE5m-27">
          <mxGeometry y="10" relative="1" as="geometry">
            <mxPoint as="offset" />
            <mxPoint x="270" y="505" as="sourcePoint" />
          </mxGeometry>
        </mxCell>
        <mxCell id="vX3REchwmnbRb52gsE5m-26" style="edgeStyle=orthogonalEdgeStyle;rounded=0;orthogonalLoop=1;jettySize=auto;html=1;exitX=1;exitY=0.5;exitDx=0;exitDy=0;entryX=0;entryY=0.5;entryDx=0;entryDy=0;" edge="1" parent="WIyWlLk6GJQsqaUBKTNV-1" source="vX3REchwmnbRb52gsE5m-27" target="vX3REchwmnbRb52gsE5m-36">
          <mxGeometry relative="1" as="geometry" />
        </mxCell>
        <mxCell id="vX3REchwmnbRb52gsE5m-27" value="&lt;div&gt;&lt;b&gt;Infer Binary Labels&lt;/b&gt;&lt;/div&gt;&lt;div&gt;&quot;UBC Label Tiles Full Dataset&quot;&lt;br&gt;&lt;/div&gt;" style="rounded=1;whiteSpace=wrap;html=1;fontSize=12;glass=0;strokeWidth=1;shadow=0;" vertex="1" parent="WIyWlLk6GJQsqaUBKTNV-1">
          <mxGeometry x="400" y="465" width="180" height="70" as="geometry" />
        </mxCell>
        <mxCell id="vX3REchwmnbRb52gsE5m-28" value="&lt;div&gt;Step 2:&lt;/div&gt;&lt;div&gt;Cancer Subtype&lt;/div&gt;&lt;div&gt;Classification&lt;br&gt;&lt;/div&gt;" style="rhombus;whiteSpace=wrap;html=1;shadow=0;fontFamily=Helvetica;fontSize=12;align=center;strokeWidth=1;spacing=6;spacingTop=-4;" vertex="1" parent="WIyWlLk6GJQsqaUBKTNV-1">
          <mxGeometry x="-550" y="385" width="150" height="90" as="geometry" />
        </mxCell>
        <mxCell id="vX3REchwmnbRb52gsE5m-29" value="" style="shape=cylinder3;whiteSpace=wrap;html=1;boundedLbl=1;backgroundOutline=1;size=15;" vertex="1" parent="WIyWlLk6GJQsqaUBKTNV-1">
          <mxGeometry x="120" y="385" width="40" height="50" as="geometry" />
        </mxCell>
        <mxCell id="vX3REchwmnbRb52gsE5m-30" value="&lt;div&gt;&lt;b&gt;Cancer Subtype Classifier Classifier&lt;/b&gt;&lt;br&gt;&lt;/div&gt;&lt;div&gt;&quot;ubc-binary-cancer-tissue-classifier-wsi-0-25x&quot;&lt;/div&gt;" style="rounded=0;whiteSpace=wrap;html=1;" vertex="1" parent="WIyWlLk6GJQsqaUBKTNV-1">
          <mxGeometry x="140" y="465" width="160" height="70" as="geometry" />
        </mxCell>
        <mxCell id="vX3REchwmnbRb52gsE5m-31" value="" style="sketch=0;outlineConnect=0;fontColor=#232F3E;gradientColor=none;fillColor=#01A88D;strokeColor=none;dashed=0;verticalLabelPosition=bottom;verticalAlign=top;align=center;html=1;fontSize=12;fontStyle=0;aspect=fixed;pointerEvents=1;shape=mxgraph.aws4.sagemaker_model;shadow=0;" vertex="1" parent="WIyWlLk6GJQsqaUBKTNV-1">
          <mxGeometry x="112" y="507" width="28" height="28" as="geometry" />
        </mxCell>
        <mxCell id="vX3REchwmnbRb52gsE5m-32" value="" style="edgeStyle=orthogonalEdgeStyle;rounded=0;orthogonalLoop=1;jettySize=auto;html=1;" edge="1" parent="WIyWlLk6GJQsqaUBKTNV-1" target="vX3REchwmnbRb52gsE5m-27">
          <mxGeometry relative="1" as="geometry">
            <mxPoint x="490" y="420" as="sourcePoint" />
          </mxGeometry>
        </mxCell>
        <mxCell id="vX3REchwmnbRb52gsE5m-36" value="&lt;div&gt;&lt;b&gt;Full Tile Dataset&lt;/b&gt;&lt;/div&gt;&lt;div&gt;&lt;b&gt;Binary Cancer labels&lt;br&gt;&lt;/b&gt;&lt;/div&gt;" style="rounded=1;whiteSpace=wrap;html=1;fontSize=12;glass=0;strokeWidth=1;shadow=0;" vertex="1" parent="WIyWlLk6GJQsqaUBKTNV-1">
          <mxGeometry x="647" y="465" width="180" height="70" as="geometry" />
        </mxCell>
        <mxCell id="vX3REchwmnbRb52gsE5m-37" value="" style="shape=cylinder3;whiteSpace=wrap;html=1;boundedLbl=1;backgroundOutline=1;size=15;" vertex="1" parent="WIyWlLk6GJQsqaUBKTNV-1">
          <mxGeometry x="617" y="507" width="40" height="50" as="geometry" />
        </mxCell>
        <mxCell id="vX3REchwmnbRb52gsE5m-38" value="Feedback Loop" style="text;html=1;align=center;verticalAlign=middle;resizable=0;points=[];autosize=1;strokeColor=none;fillColor=none;" vertex="1" parent="WIyWlLk6GJQsqaUBKTNV-1">
          <mxGeometry x="595" y="333" width="110" height="30" as="geometry" />
        </mxCell>
        <mxCell id="vX3REchwmnbRb52gsE5m-39" value="" style="shape=link;html=1;rounded=0;edgeStyle=orthogonalEdgeStyle;" edge="1" parent="WIyWlLk6GJQsqaUBKTNV-1">
          <mxGeometry width="100" relative="1" as="geometry">
            <mxPoint x="60" y="535" as="sourcePoint" />
            <mxPoint x="60" y="330" as="targetPoint" />
          </mxGeometry>
        </mxCell>
        <mxCell id="vX3REchwmnbRb52gsE5m-40" value="" style="sketch=0;pointerEvents=1;shadow=0;dashed=0;html=1;strokeColor=none;fillColor=#505050;labelPosition=center;verticalLabelPosition=bottom;verticalAlign=top;outlineConnect=0;align=center;shape=mxgraph.office.concepts.script;" vertex="1" parent="WIyWlLk6GJQsqaUBKTNV-1">
          <mxGeometry x="381" y="518.5" width="33" height="27" as="geometry" />
        </mxCell>
        <mxCell id="vX3REchwmnbRb52gsE5m-41" value="" style="sketch=0;pointerEvents=1;shadow=0;dashed=0;html=1;strokeColor=none;fillColor=#505050;labelPosition=center;verticalLabelPosition=bottom;verticalAlign=top;outlineConnect=0;align=center;shape=mxgraph.office.concepts.script;" vertex="1" parent="WIyWlLk6GJQsqaUBKTNV-1">
          <mxGeometry x="150" y="406.5" width="33" height="27" as="geometry" />
        </mxCell>
        <mxCell id="vX3REchwmnbRb52gsE5m-42" value="" style="sketch=0;pointerEvents=1;shadow=0;dashed=0;html=1;strokeColor=none;fillColor=#505050;labelPosition=center;verticalLabelPosition=bottom;verticalAlign=top;outlineConnect=0;align=center;shape=mxgraph.office.concepts.script;" vertex="1" parent="WIyWlLk6GJQsqaUBKTNV-1">
          <mxGeometry x="127" y="518.5" width="33" height="27" as="geometry" />
        </mxCell>
        <mxCell id="vX3REchwmnbRb52gsE5m-44" value="&lt;b&gt;&lt;u&gt;&lt;font style=&quot;font-size: 12px;&quot;&gt;DS 2&lt;br&gt;&lt;/font&gt;&lt;/u&gt;&lt;/b&gt;" style="text;html=1;align=center;verticalAlign=middle;resizable=0;points=[];autosize=1;strokeColor=#82b366;fillColor=#d5e8d4;" vertex="1" parent="WIyWlLk6GJQsqaUBKTNV-1">
          <mxGeometry x="300" y="350" width="50" height="30" as="geometry" />
        </mxCell>
        <mxCell id="vX3REchwmnbRb52gsE5m-45" value="&lt;div&gt;&lt;b&gt;&lt;u&gt;&lt;font style=&quot;font-size: 12px;&quot;&gt;DS 2&lt;/font&gt;&lt;/u&gt;&lt;/b&gt;&lt;/div&gt;" style="text;html=1;align=center;verticalAlign=middle;resizable=0;points=[];autosize=1;strokeColor=#82b366;fillColor=#d5e8d4;" vertex="1" parent="WIyWlLk6GJQsqaUBKTNV-1">
          <mxGeometry x="790" y="465" width="50" height="30" as="geometry" />
        </mxCell>
        <mxCell id="vX3REchwmnbRb52gsE5m-46" value="&lt;div&gt;Information:&lt;/div&gt;&lt;div&gt;Goal: Create a binary classifier which is able to label the full tiled dataset. &lt;br&gt;&lt;div align=&quot;left&quot;&gt;This dataset will be later used for the subtype classification, so that we know&amp;nbsp;&lt;/div&gt;&lt;div align=&quot;left&quot;&gt;which tiles to train the subtype-classifier on&lt;br&gt;&lt;/div&gt;&lt;/div&gt;&lt;div align=&quot;left&quot;&gt;- Subtype Classification&lt;br&gt;&lt;/div&gt;&lt;div align=&quot;left&quot;&gt;- WSI and TMA images&lt;/div&gt;&lt;div align=&quot;left&quot;&gt;- Scaling WSI 1x, TMA 0.5x&lt;br&gt;&lt;/div&gt;&lt;div align=&quot;left&quot;&gt;&lt;br&gt;&lt;/div&gt;&lt;div align=&quot;left&quot;&gt;Output: &lt;br&gt;&lt;/div&gt;&lt;div align=&quot;left&quot;&gt;- Full tiles dataset with cancer labels --&amp;gt; used in next step: subtype classification&lt;br&gt;&lt;/div&gt;" style="text;html=1;align=center;verticalAlign=middle;resizable=0;points=[];autosize=1;strokeColor=none;fillColor=none;" vertex="1" parent="WIyWlLk6GJQsqaUBKTNV-1">
          <mxGeometry x="-390" y="340" width="450" height="160" as="geometry" />
        </mxCell>
      </root>
    </mxGraphModel>
  </diagram>
</mxfile>
